# xmcd
#
# Track frame offsets: 
#        150
#        20327
#        42099
#        56074
#        74755
#        90577
#        104774
#        122158
#        136606
#        150442
#        165109
#        181549
#
# Disc length: 2570 seconds
#
# Revision: 0
# Processed by: cddbd v1.5.2PL0 Copyright (c) Steve Scherf et al.
# Submitted via: ExactAudioCopy v0.99pb5
#
DISCID=900a080c
DTITLE=Earl King and Roomful of Blues - Glazed (+bonus)
DYEAR=2009
DGENRE=Blues
TTITLE0=It All Went Down The Drain
TTITLE1=Your Love Was Never There
TTITLE2=Everybody's Got To Cry Sometime
TTITLE3=Love Rent
TTITLE4=Three Can Play The Game
TTITLE5=Iron Cupld
TTITLE6=Somebody's Got A Tall
TTITLE7=I Met A Stranger
TTITLE8=Mardi Gras In New Orleans
TTITLE9=There's Been Some Lonely,Lonely Nights
TTITLE10=One Step Beyond Love
TTITLE11=Don't Leave Me Here To Cry*
EXTD=
EXTT0=
EXTT1=
EXTT2=
EXTT3=
EXTT4=
EXTT5=
EXTT6=
EXTT7=
EXTT8=
EXTT9=
EXTT10=
EXTT11=
PLAYORDER=
